<svg width="192" height="54" viewBox="0 0 192 54" fill="none" xmlns="http://www.w3.org/2000/svg">
<path d="M189.665 27C189.665 28.1219 189.155 29.3062 188.001 30.5529C186.842 31.8049 185.085 33.0606 182.736 34.2879C178.042 36.7413 171.183 38.9808 162.624 40.8728C145.523 44.6532 121.848 47 95.665 47C69.4818 47 45.8076 44.6532 28.7057 40.8728C20.1467 38.9808 13.2882 36.7413 8.59379 34.2879C6.24549 33.0606 4.48788 31.8049 3.32894 30.5529C2.17485 29.3062 1.66504 28.1219 1.66504 27C1.66504 25.8781 2.17485 24.6938 3.32894 23.4471C4.48788 22.1951 6.24549 20.9394 8.59379 19.7121C13.2882 17.2587 20.1467 15.0192 28.7057 13.1272C45.8076 9.34678 69.4818 7 95.665 7C121.848 7 145.523 9.34678 162.624 13.1272C171.183 15.0192 178.042 17.2587 182.736 19.7121C185.085 20.9394 186.842 22.1951 188.001 23.4471C189.155 24.6938 189.665 25.8781 189.665 27Z" stroke="#D10000" stroke-width="2"/>
<path d="M189.443 21.0967C189.514 22.2238 189.08 23.4436 188.01 24.7646C186.936 26.0914 185.266 27.4594 183.007 28.8359C178.49 31.5877 171.805 34.2613 163.406 36.6938C146.624 41.5541 123.209 45.3914 97.1483 47.0357C71.0876 48.6801 47.3762 47.8164 30.116 45.1041C21.4776 43.7466 14.5102 41.9344 9.68334 39.7721C7.26884 38.6905 5.44025 37.5433 4.20758 36.3621C2.98019 35.186 2.3963 34.0304 2.32519 32.9034C2.25407 31.7763 2.68808 30.5565 3.7579 29.2354C4.83233 27.9087 6.50222 26.5407 8.76162 25.1642C13.2785 22.4124 19.9628 19.7388 28.362 17.3063C45.1444 12.446 68.5592 8.6087 94.6199 6.96433C120.681 5.31997 144.392 6.18371 161.652 8.89602C170.291 10.2535 177.258 12.0657 182.085 14.2279C184.499 15.3095 186.328 16.4567 187.561 17.6379C188.788 18.8141 189.372 19.9697 189.443 21.0967Z" stroke="#D10000" stroke-width="2"/>
</svg>
