<svg width="95" height="23" viewBox="0 0 95 23" fill="none" xmlns="http://www.w3.org/2000/svg">
<path d="M13.4 21.8851C11.12 21.8851 9.11 21.7051 7.43 21.3451C5.72 20.9851 4.4 20.5651 3.47 20.0551C2.57 19.5451 1.82 18.9151 1.28 18.1951C0.74 17.4751 0.38 16.8151 0.23 16.2451C0.0800001 15.6751 0.0200001 15.0451 0.0200001 14.3851V14.0851H7.49C7.64 16.3051 9.26 17.4151 13.64 17.4151H15.29C16.73 17.4151 17.33 17.3251 18.29 17.2051C19.22 17.0851 19.91 16.9351 20.33 16.6951C20.78 16.4551 21.05 16.2451 21.2 16.0051C21.35 15.7651 21.41 15.4951 21.41 15.1651C21.41 14.7151 21.29 14.3551 21.05 14.0851C20.81 13.8451 20.21 13.6051 19.31 13.3951C18.41 13.2151 17.12 13.0951 15.41 13.0651L13.16 13.0051L11.48 12.9751C4.04 12.7951 0.32 10.7251 0.32 6.82512V6.55512C0.32 5.89512 0.41 5.26512 0.59 4.69512C0.77 4.12512 1.13 3.55512 1.7 2.95512C2.24 2.38512 2.96 1.90512 3.86 1.51512C4.76 1.12512 5.96 0.795115 7.49 0.555117C8.99 0.285117 10.76 0.165116 12.77 0.165116H14.9C16.97 0.165116 18.83 0.285117 20.42 0.555117C22.04 0.825117 23.3 1.15512 24.26 1.57512C25.22 1.99512 26 2.50512 26.6 3.10512C27.2 3.70512 27.62 4.30512 27.83 4.87512C28.07 5.47512 28.19 6.10512 28.19 6.79512V7.06512H20.75C20.69 6.85512 20.63 6.64512 20.57 6.49512C20.51 6.34512 20.33 6.13512 20.06 5.86512C19.79 5.59512 19.46 5.38512 19.01 5.20512C18.59 5.05512 17.93 4.90512 17.09 4.75512C16.25 4.63512 15.59 4.57512 14.45 4.57512H13.4C11.66 4.57512 10.58 4.66512 9.65 4.84512C8.75 5.05512 8.18 5.26512 8 5.47512C7.79 5.68512 7.7 5.98512 7.7 6.37512C7.7 6.73512 7.79 7.00512 8.03 7.24512C8.24 7.45512 8.75 7.66512 9.56 7.87512C10.37 8.05512 11.51 8.14512 12.98 8.17512L14.66 8.20512L16.82 8.23512C21.11 8.29512 24.17 8.83512 26.06 9.82512C27.98 10.8151 28.91 12.3451 28.91 14.4751V14.8651C28.91 15.6451 28.82 16.3351 28.64 16.9351C28.46 17.5351 28.07 18.1651 27.5 18.8251C26.93 19.4551 26.18 19.9951 25.22 20.4151C24.26 20.8651 22.97 21.1951 21.32 21.4651C19.67 21.7651 17.72 21.8851 15.5 21.8851H13.4ZM31.3375 0.465116H55.4875V5.23512H38.4175V8.35512H55.0975V13.1551H38.4175V16.6051H55.8175V21.4951H31.3375V0.465116ZM58.1438 21.4951V0.465116H77.7638C80.8238 0.465116 82.9838 0.885116 84.2438 1.78512C85.5338 2.68512 86.1638 3.85512 86.1638 5.26512V5.65512C86.1638 6.28512 86.0138 6.88512 85.7738 7.39512C85.5038 7.90512 85.1738 8.32512 84.7238 8.62512C84.3038 8.95512 83.9138 9.19512 83.5538 9.34512C83.2238 9.52512 82.8638 9.67512 82.5038 9.76512C83.0138 9.85512 83.4938 10.0351 83.9738 10.2451C84.4538 10.4551 84.9638 10.7551 85.5338 11.1151C86.1038 11.5051 86.5838 12.0451 86.9138 12.7351C87.2738 13.3951 87.4538 14.1751 87.4538 15.0451V15.4351C87.4538 19.4851 84.2738 21.4951 77.9438 21.4951H58.1438ZM65.3138 4.90512V8.32512H76.5338C78.2138 8.32512 79.0238 7.75512 79.0238 6.61512V6.55512C79.0238 5.44512 78.2138 4.90512 76.5338 4.90512H65.3138ZM77.1638 12.7951H65.3138V16.9051H77.1638C78.2138 16.9051 78.9638 16.6951 79.3838 16.2751C79.7738 15.8851 79.9838 15.4051 79.9838 14.8351V14.7451C79.9838 13.4251 79.0538 12.7951 77.1638 12.7951Z" fill="black"/>
<path d="M94.9351 18.0151V22.1551H88.7251V18.0151H94.9351Z" fill="#D10000"/>
</svg>
