<svg width="218" height="47" viewBox="0 0 218 47" fill="none" xmlns="http://www.w3.org/2000/svg">
<path d="M15.649 13.8307L21.1551 2L26.8163 13.8307L40 12.5414L32.1673 23.3104L40 34.3827L26.8163 32.9418L21.1551 45L15.649 32.9418L2 34.3827L9.98776 23.3104L2 12.5414L15.649 13.8307Z" fill="#D10000" stroke="#D10000"/>
<path d="M103.649 13.8307L109.155 2L114.816 13.8307L128 12.5414L120.167 23.3104L128 34.3827L114.816 32.9418L109.155 45L103.649 32.9418L90 34.3827L97.9878 23.3104L90 12.5414L103.649 13.8307Z" fill="#D10000" stroke="#D10000"/>
<path d="M191.649 13.8307L197.155 2L202.816 13.8307L216 12.5414L208.167 23.3104L216 34.3827L202.816 32.9418L197.155 45L191.649 32.9418L178 34.3827L185.988 23.3104L178 12.5414L191.649 13.8307Z" fill="#D10000" stroke="#D10000"/>
</svg>
