<svg width="44" height="44" viewBox="0 0 44 44" fill="none" xmlns="http://www.w3.org/2000/svg">
<path d="M5.5 22C5.5 14.2212 5.5 10.3327 7.91633 7.91633C10.3327 5.5 14.223 5.5 22 5.5C29.777 5.5 33.6673 5.5 36.0837 7.91633C38.5 10.3327 38.5 14.223 38.5 22C38.5 29.777 38.5 33.6673 36.0837 36.0837C33.6673 38.5 29.777 38.5 22 38.5C14.223 38.5 10.3327 38.5 7.91633 36.0837C5.5 33.6673 5.5 29.777 5.5 22Z" stroke="white" stroke-width="3" stroke-linecap="round" stroke-linejoin="round"/>
<path d="M23.7361 28.9483L22.2328 24.0845M22.2328 24.0845L20.9751 20.0181C19.9503 16.7071 19.4388 15.0535 18.5258 15.0535C17.6146 15.0535 17.1013 16.7071 16.0783 20.0181L14.8188 24.0845M22.2328 24.0845H14.8188M13.3154 28.9465L14.8188 24.0845M28.9464 28.9465V20.2638M28.9464 15.9206V15.0535" stroke="white" stroke-width="3" stroke-linecap="round" stroke-linejoin="round"/>
</svg>
