<svg width="44" height="44" viewBox="0 0 44 44" fill="none" xmlns="http://www.w3.org/2000/svg">
<path d="M36.6663 7.33337L32.9997 33.9167L21.9997 37.5834L10.9997 33.9167L7.33301 7.33337H36.6663Z" stroke="white" stroke-width="3" stroke-linecap="round" stroke-linejoin="round"/>
<path d="M13.75 14.6667H19.25V29.3334L15.5833 27.5001M30.25 14.6667H25.6667C25.4236 14.6667 25.1904 14.7633 25.0185 14.9352C24.8466 15.1071 24.75 15.3403 24.75 15.5834V21.0834C24.75 21.3265 24.8466 21.5597 25.0185 21.7316C25.1904 21.9035 25.4236 22.0001 25.6667 22.0001H28.2755C28.4067 22.0001 28.5364 22.0283 28.6558 22.0827C28.7751 22.1372 28.8814 22.2166 28.9675 22.3157C29.0535 22.4148 29.1173 22.5312 29.1545 22.657C29.1916 22.7828 29.2014 22.9152 29.183 23.0451L28.4167 28.4167L24.75 29.3334" stroke="white" stroke-width="3" stroke-linecap="round" stroke-linejoin="round"/>
</svg>
