<svg width="44" height="44" viewBox="0 0 44 44" fill="none" xmlns="http://www.w3.org/2000/svg">
<path d="M5.5 22C5.5 14.2212 5.5 10.3327 7.91633 7.91633C10.3327 5.5 14.223 5.5 22 5.5C29.777 5.5 33.6673 5.5 36.0837 7.91633C38.5 10.3327 38.5 14.223 38.5 22C38.5 29.777 38.5 33.6673 36.0837 36.0837C33.6673 38.5 29.777 38.5 22 38.5C14.223 38.5 10.3327 38.5 7.91633 36.0837C5.5 33.6673 5.5 29.777 5.5 22Z" stroke="white" stroke-width="3" stroke-linecap="round" stroke-linejoin="round"/>
<path d="M12.4482 28.9484V22M12.4482 22V17.006C12.4482 16.8044 12.4482 16.7035 12.4556 16.6192C12.5362 15.7942 13.1889 15.1415 14.0139 15.0609C14.0982 15.0535 14.1991 15.0535 14.4007 15.0535H16.7896C17.2524 15.0429 17.7127 15.1249 18.1434 15.2946C18.5741 15.4644 18.9665 15.7185 19.2976 16.0421C19.6287 16.3657 19.8918 16.7522 20.0714 17.1789C20.251 17.6055 20.3435 18.0638 20.3435 18.5268C20.3435 18.9897 20.251 19.448 20.0714 19.8747C19.8918 20.3014 19.6287 20.6879 19.2976 21.0114C18.9665 21.335 18.5741 21.5891 18.1434 21.7589C17.7127 21.9287 17.2524 22.0107 16.7896 22H12.4482ZM31.4929 20.6489C31.1922 19.4407 29.7787 18.5259 28.0792 18.5259C26.1597 18.5259 24.6051 19.6937 24.6051 21.131C24.6051 22.5702 26.1597 23.7362 28.0792 23.7362C29.9969 23.7362 31.5534 24.904 31.5534 26.3414C31.5534 27.7805 29.9969 28.9465 28.0792 28.9465C26.3742 28.9465 24.9552 28.0262 24.6619 26.8107" stroke="white" stroke-width="3" stroke-linecap="round" stroke-linejoin="round"/>
</svg>
