<svg width="221" height="82" viewBox="0 0 221 82" fill="none" xmlns="http://www.w3.org/2000/svg">
<path d="M218.516 35.8417C218.703 40.3442 216.131 44.9095 210.944 49.3263C205.769 53.7332 198.125 57.8692 188.529 61.4927C169.347 68.7358 142.581 73.8504 112.788 75.0855C82.9941 76.3206 55.8967 73.4388 36.1809 67.8083C26.3177 64.9915 18.358 61.5024 12.8359 57.5389C7.30131 53.5666 4.36032 49.2298 4.17367 44.7273C3.98702 40.2247 6.55897 35.6594 11.7458 31.2426C16.9209 26.8357 24.5645 22.6998 34.1608 19.0763C53.3428 11.8332 80.1088 6.71853 109.902 5.48344C139.696 4.24834 166.793 7.1301 186.509 12.7607C196.372 15.5775 204.332 19.0666 209.854 23.03C215.389 27.0024 218.33 31.3392 218.516 35.8417Z" stroke="black" stroke-width="2"/>
<path d="M216.831 45.3665C216.644 49.869 213.702 54.2052 208.167 58.1766C202.644 62.139 194.683 65.6267 184.82 68.4417C165.103 74.0688 138.005 76.9456 108.212 75.7052C78.4183 74.4647 51.6532 69.3453 32.4725 62.0987C22.8769 58.4735 15.234 54.3362 10.0597 49.9284C4.87371 45.5106 2.30258 40.9448 2.49004 36.4423C2.6775 31.9399 5.61927 27.6036 11.1545 23.6322C16.6773 19.6698 24.6377 16.1821 34.5015 13.3671C54.2182 7.74006 81.3162 4.86318 111.109 6.10364C140.903 7.34409 167.668 12.4636 186.849 19.7101C196.444 23.3353 204.087 27.4726 209.261 31.8805C214.447 36.2982 217.018 40.864 216.831 45.3665Z" stroke="black" stroke-width="2"/>
</svg>
