<svg width="44" height="44" viewBox="0 0 44 44" fill="none" xmlns="http://www.w3.org/2000/svg">
<path d="M11.6548 16.5C6.82032 17.7467 3.66699 19.8825 3.66699 22.3208C3.66699 26.1837 11.7428 29.3333 21.7253 29.3333C23.082 29.3333 24.0353 29.2618 25.3003 29.1555" stroke="white" stroke-width="3" stroke-linecap="round" stroke-linejoin="round"/>
<path d="M18.0349 29.15C17.2777 28.0574 16.5572 27.0729 15.8715 25.85C10.828 16.8667 9.47687 7.93837 12.8832 5.91621C14.9915 4.63838 18.4694 6.38004 22.0022 10.0485" stroke="white" stroke-width="3" stroke-linecap="round" stroke-linejoin="round"/>
<path d="M11.787 28.2095C10.5 33.1375 10.7603 36.8555 12.8136 38.1003C16.0825 40.0803 22.6898 34.5107 27.5591 25.6263C28.2191 24.398 28.8107 23.1892 29.3338 22" stroke="white" stroke-width="3" stroke-linecap="round" stroke-linejoin="round"/>
<path d="M22 33.9534C25.5347 37.6201 28.9978 39.3618 31.1263 38.0839C34.518 36.0636 33.1815 27.1353 28.1325 18.1501C27.4285 16.9089 26.708 15.9428 25.9692 14.8501" stroke="white" stroke-width="3" stroke-linecap="round" stroke-linejoin="round"/>
<path d="M32.3769 27.5001C37.1655 26.2406 40.3335 24.1084 40.3335 21.6774C40.3335 17.8091 32.2522 14.6667 22.2844 14.6667C20.9149 14.6667 19.9634 14.7199 18.7002 14.8262" stroke="white" stroke-width="3" stroke-linecap="round" stroke-linejoin="round"/>
<path d="M14.667 22C15.1895 20.79 15.7798 19.602 16.4417 18.3737C21.2945 9.49305 27.9055 3.90871 31.1927 5.90521C33.2277 7.15005 33.5063 10.8662 32.2193 15.7924M22.477 22.0275H22.4587C22.4403 22.2659 22.2387 22.4675 21.982 22.4675C21.8592 22.4615 21.7434 22.4088 21.6582 22.3202C21.573 22.2316 21.5249 22.1138 21.5237 21.9909C21.5237 21.7342 21.7253 21.5325 21.9637 21.5325H21.9453C22.1837 21.5142 22.4037 21.7342 22.4037 21.9725" stroke="white" stroke-width="3" stroke-linecap="round" stroke-linejoin="round"/>
</svg>
