<svg width="42" height="47" viewBox="0 0 42 47" fill="none" xmlns="http://www.w3.org/2000/svg">
<path d="M15.649 13.8307L21.1551 2L26.8163 13.8307L40 12.5414L32.1673 23.3104L40 34.3827L26.8163 32.9418L21.1551 45L15.649 32.9418L2 34.3827L9.98776 23.3104L2 12.5414L15.649 13.8307Z" fill="#D10000" stroke="#D10000"/>
<path d="M20.7188 30L23.1051 15.4545H25.3778L22.9915 30H20.7188ZM14.206 26.392L14.5824 24.1193H25.946L25.5696 26.392H14.206ZM15.6051 30L17.9915 15.4545H20.2642L17.8778 30H15.6051ZM15.0369 21.3352L15.4205 19.0625H26.7841L26.4006 21.3352H15.0369Z" fill="white"/>
</svg>
