<svg width="85" height="80" viewBox="0 0 85 80" fill="none" xmlns="http://www.w3.org/2000/svg">
<path d="M27.5056 37.5556L8.92121 27.3165L32.1156 31.1985L35.134 31.7036L33.6843 29.0085L22.9447 9.04267L42.3759 28.5593L45.2244 31.4203L44.9351 27.3934L43.9728 14.0021L49.4704 29.4098L50.1236 31.2402L51.7288 30.1447L61.0374 23.7916L54.7087 35.7519L54.1232 36.8585L55.1072 37.6325L77.5693 55.2993L53.3834 47.8146L51.4688 47.2221L51.4401 49.2261L51.2911 59.6283L51.2899 59.7091L51.2974 59.7895L52.3005 70.509L44.0333 51.4714L43.4253 50.0713L42.036 50.7036L18.4331 61.4463L28.1535 39.4763L28.7098 38.219L27.5056 37.5556Z" stroke="#D10000" stroke-width="3"/>
</svg>
